<svg xmlns="http://www.w3.org/2000/svg" xmlns:xlink="http://www.w3.org/1999/xlink" version="1.1" x="0px" y="0px" viewBox="0 0 48 48" enable-background="new 0 0 48 48" xml:space="preserve"><g><path fill="#FFFFFF" d="M28.4,5.2c-0.8,0-1.5,0.7-1.5,1.5V17c0,0.2-0.3,0.3-0.4,0.2L25,15.7c-0.6-0.6-1.5-0.6-2.1,0   c-0.6,0.6-0.6,1.5,0,2.1l4.4,4.4c0.3,0.3,0.7,0.4,1.1,0.4s0.8-0.2,1.1-0.4l4.4-4.4c0.6-0.6,0.6-1.5,0-2.1c-0.6-0.6-1.5-0.6-2.1,0   l-1.5,1.5c-0.1,0.1-0.4,0-0.4-0.2V6.7C29.9,5.9,29.2,5.2,28.4,5.2z"></path><circle fill="#FFFFFF" cx="19.1" cy="43.4" r="3.3"></circle><circle fill="#FFFFFF" cx="36.3" cy="43.4" r="3.3"></circle><path fill="#FFFFFF" d="M16.4,32.1h22.5c0.3,0,0.5-0.2,0.6-0.4L46.6,15c0.2-0.4-0.1-0.9-0.6-0.9h-8.9c-0.3,0-0.5,0.4-0.4,0.6   c0.9,1.7,0.7,3.9-0.8,5.3l-4.4,4.4c-0.8,0.8-2,1.3-3.2,1.3s-2.3-0.5-3.2-1.3L20.8,20c-1.4-1.4-1.7-3.6-0.8-5.3   c0.2-0.3-0.1-0.6-0.4-0.6h-4.1c-0.3,0-0.6-0.2-0.7-0.5L12.4,2.7c-0.2-0.7-0.7-1.1-1.4-1.2L2.9,1.3c-0.8,0-1.5,0.6-1.6,1.4   c0,0.8,0.6,1.5,1.4,1.6l6.4,0.3c0.3,0,0.6,0.2,0.6,0.5l2.1,9h0l3.5,14.6c0.1,0.3-0.1,0.7-0.4,0.8c-1.7,0.6-2.9,2.2-2.9,4   c0,2.3,2,4.3,4.4,4.3h25.1c0.8,0,1.5-0.7,1.5-1.5s-0.7-1.5-1.5-1.5H16.5c-0.8,0-1.4-0.6-1.4-1.3C15.1,32.7,15.7,32.2,16.4,32.1z"></path></g></svg>