<svg width="41" height="41" viewBox="0 0 41 41" xmlns="http://www.w3.org/2000/svg"><g fill="#FFF" fill-rule="evenodd"><path d="M20.5 40.224c-11.028 0-20-8.972-20-20s8.972-20 20-20 20 8.972 20 20-8.972 20-20 20zm0-38.26c-10.07 0-18.26 8.19-18.26 18.26 0 10.07 8.19 18.26 18.26 18.26 10.07 0 18.26-8.19 18.26-18.26 0-10.07-8.19-18.26-18.26-18.26z"/><path d="M24.783 31c-.35 0-.633-.284-.633-.633v-5.584c0-.35.284-.633.633-.633h5.584c.35 0 .633.284.633.633 0 .35-.284.633-.633.633h-4.95v4.95c0 .35-.284.634-.634.634zM16.217 31c-.35 0-.633-.284-.633-.633v-4.95h-4.95c-.35 0-.634-.284-.634-.634 0-.35.284-.633.633-.633h5.584c.35 0 .633.284.633.633v5.584c0 .35-.284.633-.633.633zM16.217 16.85h-5.584c-.35 0-.633-.283-.633-.633 0-.35.284-.633.633-.633h4.95v-4.95c0-.35.284-.634.634-.634.35 0 .633.284.633.633v5.584c0 .35-.284.633-.633.633zM30.367 16.85h-5.584c-.35 0-.633-.284-.633-.633v-5.584c0-.35.284-.633.633-.633.35 0 .633.284.633.633v4.95h4.95c.35 0 .634.284.634.634 0 .35-.284.633-.633.633z"/></g></svg>