<svg xmlns="http://www.w3.org/2000/svg" viewBox="0 0 100 100"><path d="M42.25 64.427c-2.723 0-4.94 2.216-4.94 4.94s2.217 4.94 4.94 4.94 4.94-2.216 4.94-4.94-2.215-4.94-4.94-4.94zm0 6.882c-1.07 0-1.94-.872-1.94-1.942s.872-1.94 1.94-1.94 1.94.87 1.94 1.94-.87 1.94-1.94 1.94zm20.983-6.883c-2.726 0-4.942 2.216-4.942 4.94s2.218 4.94 4.943 4.94c2.725 0 4.94-2.216 4.94-4.94s-2.215-4.94-4.94-4.94zm0 6.882c-1.07 0-1.942-.872-1.942-1.942s.872-1.94 1.943-1.94c1.07 0 1.94.87 1.94 1.94s-.87 1.94-1.94 1.94zm10.955-36.906c-.283-.377-.728-.6-1.2-.6H34.65l-1.147-5.27c-.002-.014-.01-.026-.013-.04-.013-.052-.03-.102-.05-.15-.015-.045-.03-.09-.05-.132s-.045-.08-.068-.12c-.027-.045-.052-.09-.083-.13-.026-.036-.057-.067-.086-.1-.034-.04-.067-.08-.106-.114-.032-.03-.067-.054-.102-.08-.043-.033-.085-.066-.132-.094-.034-.02-.07-.037-.106-.055-.054-.028-.108-.054-.165-.075-.013-.004-.022-.01-.035-.015l-5.025-1.663c-.787-.26-1.635.167-1.895.953-.26.787.166 1.635.953 1.895l4.212 1.394L35.53 52c.003.013.012.022.015.036.037.15.093.292.17.42l.04.057c.17.252.412.448.7.56.023.01.043.02.065.027.112.037.23.066.352.076l29.375 2.413 1.422 3.757H37.98c-.83 0-1.5.672-1.5 1.5s.67 1.5 1.5 1.5H69.84c.493 0 .954-.242 1.234-.647s.343-.922.17-1.383l-2.24-5.92 5.423-18.672c.132-.455.042-.944-.242-1.32zm-7.78 18.187l-28.18-2.314-2.928-13.47h35.69L66.408 52.59z"/></svg>