<svg xmlns="http://www.w3.org/2000/svg" viewBox="0 0 100 100"><path fill="#FFF" d="M50.82 5.096c-24.813 0-45.004 20.19-45.004 44.995 0 24.815 20.19 45.006 45.005 45.006 24.805 0 44.996-20.19 44.996-45.005 0-24.803-20.192-44.994-44.995-44.994zm0 81.652c-20.21 0-36.656-16.445-36.656-36.657 0-20.2 16.445-36.646 36.657-36.646 20.203 0 36.648 16.445 36.648 36.647 0 20.213-16.445 36.658-36.647 36.658z"/><path fill="#FFF" d="M64.284 63.56c-1.63 1.63-4.272 1.63-5.903 0l-7.555-7.557-7.57 7.57c-1.623 1.623-4.28 1.623-5.903 0-1.63-1.63-1.623-4.28 0-5.903l7.57-7.57-7.57-7.57c-1.623-1.623-1.63-4.272 0-5.903 1.623-1.623 4.28-1.623 5.903 0l7.57 7.57 7.556-7.556c1.632-1.63 4.273-1.63 5.904 0 1.623 1.624 1.63 4.273 0 5.904L56.728 50.1l7.556 7.556c1.63 1.63 1.623 4.28 0 5.903z"/></svg>