<svg xmlns="http://www.w3.org/2000/svg" xmlns:xlink="http://www.w3.org/1999/xlink" version="1.1" x="0px" y="0px" viewBox="0 0 100 100" enable-background="new 0 0 100 100" xml:space="preserve"><g><g><path d="M50.821,5.096c-24.814,0-45.005,20.191-45.005,44.995c0,24.814,20.191,45.005,45.005,45.005    c24.804,0,44.995-20.191,44.995-45.005C95.816,25.287,75.624,5.096,50.821,5.096z M50.821,86.748    c-20.212,0-36.657-16.445-36.657-36.657c0-20.202,16.445-36.647,36.657-36.647c20.202,0,36.647,16.445,36.647,36.647    C87.468,70.303,71.023,86.748,50.821,86.748z"></path></g><g><path d="M64.284,63.559c-1.631,1.631-4.272,1.631-5.903,0l-7.556-7.556l-7.57,7.57c-1.623,1.623-4.28,1.623-5.903,0    c-1.631-1.631-1.623-4.28,0-5.903l7.57-7.57l-7.57-7.57c-1.623-1.623-1.631-4.272,0-5.903c1.623-1.623,4.28-1.623,5.903,0    l7.57,7.57l7.556-7.556c1.631-1.631,4.272-1.631,5.903,0c1.623,1.623,1.631,4.272,0,5.903l-7.556,7.556l7.556,7.556    C65.914,59.287,65.907,61.936,64.284,63.559z"></path></g></g></svg>