<?xml version="1.0" encoding="UTF-8" standalone="no"?>
<svg width="8px" height="4px" viewBox="0 0 8 4" version="1.1" xmlns="http://www.w3.org/2000/svg" xmlns:xlink="http://www.w3.org/1999/xlink" xmlns:sketch="http://www.bohemiancoding.com/sketch/ns">
    <g stroke="none" stroke-width="1" fill="currentColor" fill-rule="evenodd">
        <path d="M8,1.5 C7.41176466,1.5 7.05882305,1.875 6.47058771,2.5 C6.00000026,3.125 5.17647017,4 3.99999949,4 C2.70588195,4 2.11764661,3.125 1.52941229,2.5 C1.05882382,1.875 0.705882202,1.5 2.93098879e-14,1.5 L2.93098879e-14,0 C1.29411754,0 1.88235288,0.875 2.47058822,1.5 C2.9411767,2.125 3.29411728,2.5 3.99999949,2.5 C4.58823483,2.5 4.94117644,2.125 5.52941178,1.5 C6.00000026,0.875 6.82352932,0 8,0 C7.99999897,0.9862061 7.99999897,0 8,1.5 L8,1.5 Z"></path>
    </g>
</svg>