<svg width="18" height="20" viewBox="0 0 18 20" xmlns="http://www.w3.org/2000/svg"><path d="M16.27 6.797c-.87-1.903-2.506-3.43-4.48-4.16C10.885 2.3 9.96 2.14 9 2.14c-1.156 0-2.276.248-3.342.728-1.902.87-3.43 2.506-4.16 4.48C1.16 8.254 1 9.178 1 10.138c0 1.156.25 2.276.73 3.343.87 1.903 2.506 3.432 4.48 4.16.888.34 1.83.5 2.79.5 1.156 0 2.276-.25 3.342-.73 1.92-.89 3.43-2.524 4.16-4.48.338-.89.498-1.83.498-2.79 0-1.157-.25-2.277-.73-3.343zm-8.177 5.53l-1.28-1.28V9.23l1.28-1.28h1.814l1.28 1.28v1.814l-1.28 1.28H8.093zm-5.795.176c-.267-.764-.41-1.546-.41-2.364 0-.748.108-1.477.34-2.188H6.83L2.3 12.502zm13.404-4.73c.267.766.41 1.548.41 2.366 0 .746-.108 1.474-.34 2.186H11.17L15.7 7.774zm-.373-.87l-3.254 3.254V3.72c1.386.677 2.542 1.797 3.253 3.183zM9 3.028c.747 0 1.476.106 2.187.338V7.97l-4.55-4.533C7.4 3.17 8.18 3.027 9 3.027zm-3.236.782l3.254 3.253H2.582C3.258 5.677 4.378 4.52 5.764 3.81zM2.67 13.374l3.254-3.253v6.419c-1.386-.66-2.542-1.78-3.253-3.166zM9 17.25c-.747 0-1.476-.107-2.187-.338v-4.604l4.55 4.55c-.763.25-1.545.392-2.363.392zm3.236-.782l-3.254-3.254H15.4c-.658 1.387-1.778 2.543-3.164 3.254z" fill="#FFF" fill-rule="evenodd"/></svg>