<?xml version="1.0" encoding="UTF-8" standalone="no"?>
<svg width="19px" height="20px" viewBox="0 0 19 20" version="1.1" xmlns="http://www.w3.org/2000/svg" xmlns:xlink="http://www.w3.org/1999/xlink">
    <defs></defs>
    <g stroke="none" stroke-width="1" fill="none" fill-rule="evenodd">
        <g transform="translate(-261.000000, -9.000000)" fill="#FFFFFF">
            <path d="M269.723273,14.4861976 C269.410143,14.4861976 269.156693,14.7396476 269.156693,15.0527775 L269.156693,18.9780429 L267.408983,20.7257529 C267.187639,20.9470968 267.187639,21.305553 267.408983,21.5268969 C267.519655,21.6375688 267.664699,21.6927159 267.809743,21.6927159 C267.954788,21.6927159 268.099832,21.6375688 268.210504,21.5268969 L270.124411,19.6129901 C270.125167,19.6122346 270.125167,19.6114792 270.125544,19.6111015 C270.177292,19.5589761 270.218463,19.4974078 270.246792,19.4286627 C270.248681,19.4245078 270.249059,19.4199752 270.250947,19.4158203 C270.274744,19.3534965 270.289475,19.2870178 270.289852,19.2163841 C270.289852,19.2144955 270.29023,19.2126069 270.29023,19.2107183 L270.29023,15.0527775 C270.289852,14.7396476 270.036025,14.4861976 269.723273,14.4861976 L269.723273,14.4861976 Z M275.999844,14.5047058 C276.110516,14.6153778 276.255561,14.6705249 276.400605,14.6705249 C276.54565,14.6705249 276.690694,14.6153778 276.801366,14.5047058 C277.02271,14.2837397 277.02271,13.924528 276.801366,13.7035619 L275.231184,12.1337579 C275.009841,11.912414 274.651384,11.912414 274.43004,12.1337579 C274.208697,12.3547241 274.208697,12.7139357 274.43004,12.9349019 L274.814937,13.3194207 L274.078761,14.0555969 C272.901786,13.0595494 271.382596,12.4563307 269.72365,12.4563307 C265.998576,12.4563307 262.968129,15.4867776 262.968129,19.2122292 C262.968129,22.9369254 265.998576,25.96775 269.72365,25.96775 C273.448724,25.96775 276.479549,22.9373031 276.479549,19.2122292 C276.479549,17.5532833 275.875952,16.0344715 274.880283,14.8571185 L275.616459,14.1209424 L275.999844,14.5047058 L275.999844,14.5047058 Z M275.346011,19.2118515 C275.346011,22.3117989 272.823598,24.8342125 269.723273,24.8342125 C266.622947,24.8342125 264.100912,22.3117989 264.100912,19.2118515 C264.100912,16.1115264 266.622947,13.5891128 269.723273,13.5891128 C272.823598,13.5891128 275.346011,16.1115264 275.346011,19.2118515 L275.346011,19.2118515 Z" id="Shape"></path>
        </g>
    </g>
</svg>