<?xml version="1.0" encoding="UTF-8" standalone="no"?>
<svg width="19px" height="20px" viewBox="0 0 19 20" version="1.1" xmlns="http://www.w3.org/2000/svg" xmlns:xlink="http://www.w3.org/1999/xlink">
    <defs></defs>
    <g id="Galleries" stroke="none" stroke-width="1" fill="none" fill-rule="evenodd">
        <g id="EXIF-Copy" transform="translate(-7.000000, -9.000000)" fill="#000000">
            <g id="noun_119953" transform="translate(8.000000, 12.000000)">
                <path d="M15.8409091,12.2777778 L1.15909091,12.2777778 C0.502272727,12.2777778 0,11.7789931 0,11.1267361 L0,3.06944444 C0,2.4171875 0.502272727,1.91840278 1.15909091,1.91840278 L4.75227273,1.91840278 L5.25454545,0.728993056 C5.44772727,0.306944444 5.83409091,0 6.33636364,0 L10.7022727,0 C11.1659091,0 11.5909091,0.268576389 11.7840909,0.728993056 L12.2863636,1.91840278 L15.8409091,1.91840278 C16.4977273,1.91840278 17,2.4171875 17,3.06944444 L17,11.1267361 C17,11.7789931 16.4977273,12.2777778 15.8409091,12.2777778 L15.8409091,12.2777778 Z M1.15909091,2.68576389 C0.927272727,2.68576389 0.772727273,2.83923611 0.772727273,3.06944444 L0.772727273,11.1267361 C0.772727273,11.3569444 0.927272727,11.5104167 1.15909091,11.5104167 L15.8409091,11.5104167 C16.0727273,11.5104167 16.2272727,11.3569444 16.2272727,11.1267361 L16.2272727,3.06944444 C16.2272727,2.83923611 16.0727273,2.68576389 15.8409091,2.68576389 L11.7068182,2.68576389 L11.0113636,0.997569444 C10.9727273,0.844097222 10.8181818,0.767361111 10.6636364,0.767361111 L6.29772727,0.767361111 C6.14318182,0.767361111 5.98863636,0.844097222 5.95,0.997569444 L5.29318182,2.68576389 L1.15909091,2.68576389 L1.15909091,2.68576389 Z" id="Shape"></path>
                <path d="M8.02777778,10.3888889 C6.19135802,10.3888889 4.72222222,8.91975309 4.72222222,7.08333333 C4.72222222,5.24691358 6.19135802,3.77777778 8.02777778,3.77777778 C9.86419753,3.77777778 11.3333333,5.24691358 11.3333333,7.08333333 C11.3333333,8.91975309 9.86419753,10.3888889 8.02777778,10.3888889 L8.02777778,10.3888889 Z M8.02777778,4.51234568 C6.59537037,4.51234568 5.45679012,5.65092593 5.45679012,7.08333333 C5.45679012,8.51574074 6.59537037,9.65432099 8.02777778,9.65432099 C9.46018519,9.65432099 10.5987654,8.51574074 10.5987654,7.08333333 C10.5987654,5.65092593 9.46018519,4.51234568 8.02777778,4.51234568 L8.02777778,4.51234568 Z" id="Shape"></path>
                <rect id="Rectangle-path" x="1.88888889" y="0.944444444" width="1.88888889" height="0.944444444"></rect>
                <ellipse id="Oval" cx="14.6388889" cy="4.25" rx="0.472222222" ry="0.472222222"></ellipse>
            </g>
        </g>
    </g>
</svg>