<svg width="19" height="20" viewBox="0 0 19 20" xmlns="http://www.w3.org/2000/svg"><path d="M8.723 5.486c-.313 0-.566.254-.566.567v3.925L6.41 11.726c-.222.22-.222.58 0 .8.11.112.255.167.4.167.145 0 .29-.055.4-.166l1.914-1.914s0-.002.002-.002c.05-.05.092-.113.12-.18.003-.005.003-.01.005-.014.025-.063.04-.13.04-.2V6.054c0-.313-.254-.567-.567-.567zm6.277.02c.11.11.256.165.4.165.146 0 .29-.055.4-.165.223-.22.223-.58 0-.8l-1.57-1.57c-.22-.223-.58-.223-.8 0-.22.22-.22.58 0 .8l.385.384-.736.736c-1.178-.996-2.697-1.6-4.356-1.6-3.725 0-6.756 3.03-6.756 6.756 0 3.725 3.03 6.756 6.756 6.756 3.725 0 6.756-3.03 6.756-6.756 0-1.66-.604-3.178-1.6-4.355l.736-.736.384.385zm-.654 4.706c0 3.1-2.522 5.622-5.623 5.622-3.1 0-5.622-2.522-5.622-5.622S5.624 4.59 8.724 4.59s5.623 2.522 5.623 5.622z" fill="#FFF" fill-rule="evenodd"/></svg>