<svg width="19" height="20" viewBox="0 0 19 20" xmlns="http://www.w3.org/2000/svg"><g transform="translate(1 3)" fill="#FFF" fill-rule="evenodd"><path d="M15.84 12.278H1.16c-.658 0-1.16-.5-1.16-1.15v-8.06c0-.65.502-1.15 1.16-1.15H4.75l.503-1.19C5.448.31 5.835 0 6.335 0h4.367c.464 0 .89.27 1.082.73l.502 1.188h3.555c.658 0 1.16.5 1.16 1.15v8.06c0 .65-.502 1.15-1.16 1.15zM1.16 2.686c-.233 0-.387.153-.387.383v8.057c0 .23.154.383.386.383h14.68c.233 0 .387-.153.387-.383V3.07c0-.23-.154-.384-.386-.384h-4.133L11.01.998c-.037-.154-.192-.23-.346-.23H6.298c-.155 0-.31.076-.348.23l-.657 1.688H1.16z"/><path d="M8.028 10.39c-1.837 0-3.306-1.47-3.306-3.307 0-1.836 1.47-3.305 3.306-3.305s3.305 1.47 3.305 3.305c0 1.837-1.47 3.306-3.305 3.306zm0-5.878c-1.433 0-2.57 1.14-2.57 2.57 0 1.434 1.137 2.572 2.57 2.572 1.432 0 2.57-1.138 2.57-2.57C10.6 5.65 9.46 4.51 8.03 4.51zM1.89.944h1.888v.944h-1.89z"/><ellipse cx="14.639" cy="4.25" rx=".472" ry=".472"/></g></svg>