<?xml version="1.0" encoding="UTF-8" standalone="no"?>
<svg width="18px" height="20px" viewBox="0 0 18 20" version="1.1" xmlns="http://www.w3.org/2000/svg" xmlns:xlink="http://www.w3.org/1999/xlink">
    <defs></defs>
    <g id="Galleries" stroke="none" stroke-width="1" fill="none" fill-rule="evenodd">
        <g id="EXIF-Copy" transform="translate(-124.000000, -9.000000)" fill="#FFFFFF">
            <path d="M140.271111,15.7966667 L140.271111,15.7966667 C139.4,13.8944444 137.764444,12.3655556 135.791111,11.6366667 C134.884444,11.2988889 133.96,11.1388889 133,11.1388889 C131.844444,11.1388889 130.724444,11.3877778 129.657778,11.8677778 C127.755556,12.7388889 126.226667,14.3744444 125.497778,16.3477778 C125.16,17.2544444 125,18.1788889 125,19.1388889 C125,20.2944444 125.248889,21.4144444 125.728889,22.4811111 L125.728889,22.4811111 C126.6,24.3833333 128.235556,25.9122222 130.208889,26.6411111 C131.097778,26.9788889 132.04,27.1388889 133,27.1388889 C134.155556,27.1388889 135.275556,26.89 136.342222,26.41 C138.262222,25.5211111 139.773333,23.8855556 140.502222,21.93 C140.84,21.0411111 141,20.0988889 141,19.1388889 C141,17.9833333 140.751111,16.8633333 140.271111,15.7966667 L140.271111,15.7966667 Z M132.093333,21.3255556 L130.813333,20.0455556 L130.813333,18.2322222 L132.093333,16.9522222 L133.906667,16.9522222 L135.186667,18.2322222 L135.186667,20.0455556 L133.906667,21.3255556 L132.093333,21.3255556 L132.093333,21.3255556 Z M126.297778,21.5033333 C126.031111,20.7388889 125.888889,19.9566667 125.888889,19.1388889 C125.888889,18.3922222 125.995556,17.6633333 126.226667,16.9522222 L130.831111,16.9522222 L126.297778,21.5033333 L126.297778,21.5033333 Z M139.702222,16.7744444 C139.968889,17.5388889 140.111111,18.3211111 140.111111,19.1388889 C140.111111,19.8855556 140.004444,20.6144444 139.773333,21.3255556 L135.168889,21.3255556 L139.702222,16.7744444 L139.702222,16.7744444 Z M139.328889,15.9033333 L136.075556,19.1566667 L136.075556,18.0544444 L136.075556,12.7211111 C137.462222,13.3966667 138.617778,14.5166667 139.328889,15.9033333 L139.328889,15.9033333 Z M133,12.0277778 C133.746667,12.0277778 134.475556,12.1344444 135.186667,12.3655556 L135.186667,16.97 L130.635556,12.4366667 C131.4,12.17 132.182222,12.0277778 133,12.0277778 L133,12.0277778 Z M129.764444,12.81 L133.017778,16.0633333 L131.915556,16.0633333 L126.582222,16.0633333 C127.257778,14.6766667 128.377778,13.5211111 129.764444,12.81 L129.764444,12.81 Z M126.671111,22.3744444 L129.924444,19.1211111 L129.924444,20.2233333 L129.924444,25.5388889 C128.537778,24.8811111 127.382222,23.7611111 126.671111,22.3744444 L126.671111,22.3744444 Z M133,26.25 C132.253333,26.25 131.524444,26.1433333 130.813333,25.9122222 L130.813333,21.3077778 L135.364444,25.8588889 C134.6,26.1077778 133.817778,26.25 133,26.25 L133,26.25 Z M136.235556,25.4677778 L132.982222,22.2144444 L134.084444,22.2144444 L139.4,22.2144444 C138.742222,23.6011111 137.622222,24.7566667 136.235556,25.4677778 L136.235556,25.4677778 Z" id="Shape"></path>
        </g>
    </g>
</svg>