<svg xmlns="http://www.w3.org/2000/svg" xmlns:xlink="http://www.w3.org/1999/xlink" version="1.1" x="0px" y="0px" viewBox="0 0 100 100" style="enable-background:new 0 0 100 100;" xml:space="preserve"><g><path style="" d="M35.614,75.178H22.948c-0.553,0-1-0.448-1-1V62.146c0-0.552,0.447-1,1-1s1,0.448,1,1v11.032h11.666   c0.553,0,1,0.448,1,1S36.167,75.178,35.614,75.178z" fill="#231F20"></path><path style="" d="M22.948,40.031c-0.553,0-1-0.448-1-1V26.999c0-0.552,0.447-1,1-1h12.666c0.553,0,1,0.448,1,1   s-0.447,1-1,1H23.948v11.033C23.948,39.584,23.5,40.031,22.948,40.031z" fill="#231F20"></path><path style="" d="M77.41,75.178H64.745c-0.553,0-1-0.448-1-1s0.447-1,1-1H76.41V62.146c0-0.552,0.447-1,1-1   s1,0.448,1,1v12.032C78.41,74.731,77.962,75.178,77.41,75.178z" fill="#231F20"></path><path style="" d="M77.41,40.031c-0.553,0-1-0.448-1-1V27.999H64.745c-0.553,0-1-0.448-1-1s0.447-1,1-1H77.41   c0.553,0,1,0.448,1,1v12.033C78.41,39.584,77.962,40.031,77.41,40.031z" fill="#231F20"></path></g></svg>