<svg xmlns="http://www.w3.org/2000/svg" viewBox="0 0 100 100"><g fill="#fff"><path d="M35.614 75.178H22.948c-.553 0-1-.448-1-1V62.146c0-.552.447-1 1-1s1 .448 1 1v11.032h11.666c.553 0 1 .448 1 1s-.447 1-1 1zM22.948 40.03c-.553 0-1-.447-1-1V27c0-.553.447-1 1-1h12.666c.553 0 1 .447 1 1s-.447 1-1 1H23.948V39.03c0 .552-.448 1-1 1zM77.41 75.178H64.745c-.553 0-1-.448-1-1s.447-1 1-1H76.41V62.146c0-.552.447-1 1-1s1 .448 1 1v12.032c0 .553-.448 1-1 1zM77.41 40.03c-.553 0-1-.447-1-1V28H64.745c-.553 0-1-.45-1-1s.447-1 1-1H77.41c.553 0 1 .447 1 1V39.03c0 .552-.448 1-1 1z"/></g></svg>