<?xml version="1.0" encoding="UTF-8" standalone="no"?>
<svg width="56px" height="72px" viewBox="0 0 56 72" version="1.1" xmlns="http://www.w3.org/2000/svg" xmlns:xlink="http://www.w3.org/1999/xlink" xmlns:sketch="http://www.bohemiancoding.com/sketch/ns">
    <g id="Page-1" stroke="none" stroke-width="1" fill="none" fill-rule="evenodd" sketch:type="MSPage">
        <path d="M55.654,36.736 L55.654,69.51 C55.654,70.745 43.274,71.745 28,71.745 C12.726,71.745 0.346,70.745 0.346,69.511 L0.346,36.737 C0.346,35.503 12.726,34.503 28,34.503 C43.274,34.503 55.654,35.503 55.654,36.737 L55.654,36.736 Z M3.674,34.672 C5.364,34.422 7.634,34.198 10.341,34.016 L10.341,24.666 C10.341,14.866 18.287,6.922 28.087,6.922 C37.887,6.922 45.832,14.867 45.832,24.667 L45.832,34.027 C48.558,34.213 50.829,34.441 52.5,34.697 L52.5,24.667 C52.5,19.877 51.114,15.412 48.73,11.641 C44.405,4.801 36.78,0.256 28.087,0.256 C19.397,0.256 11.771,4.802 7.445,11.642 C5.065,15.408 3.679,19.866 3.675,24.649 L3.675,34.672 L3.674,34.672 Z M33.752,48.956 C33.752,45.826 31.215,43.289 28.085,43.289 C24.955,43.289 22.418,45.825 22.418,48.955 C22.418,51.132 23.648,53.02 25.448,53.969 L24.835,62.955 L31.335,62.955 L30.788,53.935 C32.554,52.977 33.752,51.105 33.752,48.955 L33.752,48.956 Z" id="Shape" fill="#FFFFFF" sketch:type="MSShapeGroup"></path>
    </g>
</svg>