<svg width="40" height="40" viewBox="0 0 40 40" xmlns="http://www.w3.org/2000/svg"><g fill="#FFF" fill-rule="evenodd"><path d="M20 40C8.972 40 0 31.028 0 20S8.972 0 20 0s20 8.972 20 20-8.972 20-20 20zm0-38.26C9.93 1.74 1.74 9.93 1.74 20c0 10.07 8.19 18.26 18.26 18.26 10.07 0 18.26-8.19 18.26-18.26C38.26 9.93 30.07 1.74 20 1.74z"/><path d="M27.826 20.87H12.174c-.48 0-.87-.39-.87-.87s.39-.87.87-.87h15.652c.478 0 .87.39.87.87s-.392.87-.87.87z"/><path d="M20 28.696c-.48 0-.87-.392-.87-.87V12.174c0-.48.39-.87.87-.87s.87.39.87.87v15.652c0 .478-.39.87-.87.87z"/></g></svg>