<svg xmlns="http://www.w3.org/2000/svg" viewBox="0 0 90 90"><path d="M61.833 56.34c-2.546 0-4.907.788-6.858 2.13l-15.01-10.387c.228-.928.362-1.893.362-2.892 0-.997-.134-1.962-.362-2.89l15.01-10.387c1.95 1.34 4.31 2.13 6.857 2.13 6.696 0 12.124-5.428 12.124-12.124 0-6.697-5.428-12.125-12.124-12.125S49.708 15.223 49.708 21.92c0 .997.134 1.962.36 2.89L35.062 35.197c-1.95-1.34-4.31-2.13-6.857-2.13-6.696 0-12.124 5.428-12.124 12.124s5.427 12.125 12.123 12.125c2.546 0 4.907-.788 6.858-2.13L50.07 65.57c-.227.93-.36 1.894-.36 2.893 0 6.696 5.427 12.124 12.123 12.124s12.124-5.428 12.124-12.124-5.43-12.124-12.124-12.124z"/></svg>