<?xml-stylesheet type="text/css"?>
<svg xmlns="http://www.w3.org/2000/svg" viewBox="0 0 100 100">
    <path fill="#ffffff" d="M76.313 46.268H37.17v-19.23c0-7.436 6.05-13.485 13.484-13.485 7.435 0 13.484 6.05 13.484 13.484v3.62h8.84v-3.62c0-12.31-10.014-22.325-22.324-22.325-12.26 0-22.236 9.936-22.317 22.177h-.007v19.378h-4.64c-1.367 0-2.476 1.2-2.476 2.683v43.08c0 1.48 1.11 2.683 2.476 2.683h52.622c1.366 0 2.474-1.2 2.474-2.683V48.95c0-1.48-1.107-2.682-2.473-2.682zm-23 27.528v7.977h-6.625v-7.977c-1.67-1.084-2.774-2.965-2.774-5.104 0-3.362 2.725-6.087 6.086-6.087 3.36 0 6.087 2.725 6.087 6.087 0 2.14-1.105 4.02-2.774 5.104z"/>
</svg>