<?xml version="1.0" encoding="UTF-8" standalone="no"?>
<svg width="58px" height="91px" viewBox="0 0 58 91" version="1.1" xmlns="http://www.w3.org/2000/svg" xmlns:xlink="http://www.w3.org/1999/xlink" xmlns:sketch="http://www.bohemiancoding.com/sketch/ns">
    <!-- Generator: Sketch 3.3.3 (12081) - http://www.bohemiancoding.com/sketch -->
    <title>Slice 1</title>
    <desc>Created with Sketch.</desc>
    <defs></defs>
    <g id="Page-1" stroke="none" stroke-width="1" fill="none" fill-rule="evenodd" sketch:type="MSPage">
        <path d="M55.313,42.268 L16.17,42.268 L16.17,23.038 C16.17,15.602 22.22,9.553 29.654,9.553 C37.089,9.553 43.138,15.603 43.138,23.037 L43.138,26.657 L51.978,26.657 L51.978,23.037 C51.978,10.727 41.964,0.712 29.654,0.712 C17.394,0.712 7.418,10.648 7.337,22.889 L7.33,22.889 L7.33,42.267 L2.69,42.267 C1.323,42.267 0.214,43.467 0.214,44.95 L0.214,88.03 C0.214,89.51 1.324,90.713 2.69,90.713 L55.312,90.713 C56.678,90.713 57.786,89.513 57.786,88.03 L57.786,44.95 C57.786,43.47 56.679,42.268 55.313,42.268 L55.313,42.268 Z M32.313,69.796 L32.313,77.773 L25.688,77.773 L25.688,69.796 C24.018,68.712 22.914,66.831 22.914,64.692 C22.914,61.33 25.639,58.605 29,58.605 C32.36,58.605 35.087,61.33 35.087,64.692 C35.087,66.832 33.982,68.712 32.313,69.796 L32.313,69.796 Z" id="Shape" fill="#FFFFFF" sketch:type="MSShapeGroup"></path>
    </g>
</svg>